PathFileType	4	(X/Y/Z)	/Users/niels/Desktop/University/Third Semester/Perception and Action/Exam/Gymnastics Motion Tracking/Code for Gym Tracking/Analyzed Data/Webcam_Backflip/id2005_1_baseline_Sports2D/id2005_1_baseline_Sports2D_px_person00.trc
DataRate	CameraRate	NumFrames	NumMarkers	Units	OrigDataRate	OrigDataStartFrame	OrigNumFrames
29.75	29.75	12	22	m	29.75	75	120
Frame#	Time	Hip			RHip			RKnee			RAnkle			RBigToe			RSmallToe			RHeel			LHip			LKnee			LAnkle			LBigToe			LSmallToe			LHeel			Neck			Head			Nose			RShoulder			RElbow			RWrist			LShoulder			LElbow			LWrist		
		X1	Y1	Z1	X2	Y2	Z2	X3	Y3	Z3	X4	Y4	Z4	X5	Y5	Z5	X6	Y6	Z6	X7	Y7	Z7	X8	Y8	Z8	X9	Y9	Z9	X10	Y10	Z10	X11	Y11	Z11	X12	Y12	Z12	X13	Y13	Z13	X14	Y14	Z14	X15	Y15	Z15	X16	Y16	Z16	X17	Y17	Z17	X18	Y18	Z18	X19	Y19	Z19	X20	Y20	Z20	X21	Y21	Z21	X22	Y22	Z22
75	2.5210084033613445	0.9188383997786953	-1.028404030876257	0.0	0.6194871328693324	-0.99903802111784	0.0	1.5114166734099077	-0.9931808783120497	0.0	0.7607390105325802	-0.9239461559670716	0.0			0.0	1.4493984375	-0.841671875	0.0	1.0382606561734444	-1.013837514698045	0.0	1.128113364293488	-0.987276229962543	0.0	1.5239680673818694	-1.0048634611445078	0.0	1.1828027412646225	-0.8070258269340153	0.0	1.3512987611306022	-0.5829514239177174	0.0	1.251801853704195	-0.5681838790468562	0.0	0.9955359019969875	-1.0443683861802717	0.0	0.9284213920535828	-0.598454760722993	0.0	0.9275150891670664	-0.22958443701651857	0.0	0.9379849174664876	-0.4230453014817983	0.0	0.6344393660777442	-0.7014518069588354	0.0	0.4010165366618622	-1.0296614932847892	0.0	0.5782425684839052	-1.0192451192774956	0.0	1.218118588915651	-0.6966721192475068	0.0	1.626547349447102	-1.030968440070435	0.0	1.5161168221512509	-1.0166767175007845	0.0
76	2.5546218487394956	0.9188265425035884	-1.0284364949374538	0.0	0.6193062806613342	-0.9990595258486508	0.0	1.5111957511925573	-0.9931666824557228	0.0	0.7608279540274732	-0.9239676510042684	0.0			0.0	1.4493984375	-0.841671875	0.0	1.0382927058321907	-1.0138525564407614	0.0	1.1306148317182436	-0.987330730935348	0.0	1.5238015937629255	-1.0049033861945131	0.0	1.1828027272943935	-0.8070256246523444	0.0	1.3511915966671346	-0.5828983040636063	0.0	1.2518018352267866	-0.5681836989012493	0.0	0.995495612373503	-1.0444337926837088	0.0	0.9303184679135267	-0.5867698215434128	0.0	0.9262273709652008	-0.23062980511185618	0.0	0.9388339220764652	-0.4218320106823983	0.0	0.6437799647197678	-0.6888080506308525	0.0	0.4191758234414714	-1.026507553008744	0.0	0.6462425102337637	-1.0202946294185926	0.0	1.2213316223199469	-0.676774943880881	0.0	1.634539227876825	-1.0302205589603501	0.0	1.5231185259167512	-1.01834629911697	0.0
77	2.5882352941176467	0.918834938366426	-1.028448668613204	0.0	0.6192302597432571	-0.999068963694249	0.0	1.5113918751989408	-0.9931690136119965	0.0	0.7608462713748458	-0.9239720777732614	0.0			0.0	1.4493984375	-0.841671875	0.0	1.0383115403637473	-1.0138613959788076	0.0	1.1315735086788932	-0.9873485586148824	0.0	1.5237594214177346	-1.0049284085616341	0.0	1.1828027234379574	-0.8070254780046329	0.0	1.3512088710970858	-0.5829069909192942	0.0	1.251801806711275	-0.5681833326676661	0.0	0.9954769524993774	-1.0444659307374726	0.0	0.9325754744116729	-0.5785952188181275	0.0	0.9251924420451381	-0.2323329678156739	0.0	0.9399875872677775	-0.4210592512821508	0.0	0.65135144896775	-0.6810812166283026	0.0	0.43113396595589804	-1.0249886353380417	0.0	0.707435783945591	-1.0207814798486339	0.0	1.2273218176766938	-0.6621998570487314	0.0	1.6408379674204807	-1.030184264483599	0.0	1.5280615157439952	-1.0192048665830749	0.0
78	2.6218487394957983	0.9188494442206807	-1.0284491900644321	0.0	0.6192180293624874	-0.9990708745024741	0.0	1.5117035259343303	-0.9931786871027073	0.0	0.7608304917289189	-0.9239682642982037	0.0			0.0	1.4493984375	-0.841671875	0.0	1.0383198377157419	-1.0138652901430145	0.0	1.1316366480448705	-0.9873464367226562	0.0	1.5237798560550044	-1.0049405168583687	0.0	1.1828027247970592	-0.8070253938913549	0.0	1.3512729649045156	-0.5829389026636248	0.0	1.2518017817461053	-0.5681829884342154	0.0	0.9954721128349034	-1.0444757229548096	0.0	0.9353145287634257	-0.5740157727922052	0.0	0.924776868858783	-0.23455105621988068	0.0	0.9412952707290058	-0.4209327267652734	0.0	0.6561256683114611	-0.6779142139126443	0.0	0.43563374033299956	-1.025744763799968	0.0	0.731832730648996	-1.0209813276453443	0.0	1.237148899918886	-0.6540495565412185	0.0	1.645815559366842	-1.031157724586645	0.0	1.5294281125283915	-1.0196909616720446	0.0
79	2.6554621848739495	0.9188626157965706	-1.0284447218421742	0.0	0.619235361051991	-0.9990691496761984	0.0	1.5119531159420618	-0.9931891311242534	0.0	0.7608048944710192	-0.923962078193251	0.0			0.0	1.4493984375	-0.841671875	0.0	1.0383215465025686	-1.0138660921213447	0.0	1.131313070973748	-0.9873366609572084	0.0	1.5238205444897188	-1.0049440974299875	0.0	1.182802727942429	-0.8070253582879279	0.0	1.3513390072827358	-0.5829715352347413	0.0	1.2518017649826518	-0.5681827461639014	0.0	0.995473718669977	-1.0444738039781039	0.0	0.9383087505386042	-0.5722709197940166	0.0	0.92511649329694	-0.2368552967757584	0.0	0.9424974413998136	-0.42142879980901304	0.0	0.6578104438092321	-0.6778066278305392	0.0	0.43361889416223204	-1.0285620699125722	0.0	0.704188044294633	-1.0212019391202711	0.0	1.249847981599116	-0.6517698651290288	0.0	1.6498601214822644	-1.0330163456327681	0.0	1.5272987393850945	-1.0202477816258322	0.0
80	2.6890756302521006	0.9188718058390212	-1.028439271404506	0.0	0.6192600139697362	-0.9990663520230865	0.0	1.5120476858057703	-0.9931952602055865	0.0	0.7607821511673774	-0.9239565818045017	0.0			0.0	1.4493984375	-0.841671875	0.0	1.038320074452431	-1.013865401249732	0.0	1.1309171624692682	-0.9873263889594138	0.0	1.5238586054974792	-1.0049434120873293	0.0	1.182802730976486	-0.8070253523160006	0.0	1.3513875290831991	-0.5829948186962597	0.0	1.251801756128013	-0.5681826113537748	0.0	0.9954763339850737	-1.0444678556972018	0.0	0.9409895817756928	-0.572219279981241	0.0	0.9259196878060683	-0.23876088333132348	0.0	0.9433894893460861	-0.42223213280633304	0.0	0.6572759944997238	-0.6790652408556092	0.0	0.4282077821682013	-1.0322007901593644	0.0	0.6429171040651325	-1.0215164154732561	0.0	1.2623165911874268	-0.6531869125970722	0.0	1.6529512548935013	-1.0351311825365963	0.0	1.5234074497676282	-1.0209316329080962	0.0
81	2.722689075630252	0.9188770745537325	-1.0284346257649195	0.0	0.6192806394532963	-0.9990637939594387	0.0	1.5119430827638976	-0.9931920817042235	0.0	0.7607667226037192	-0.9239528531733372	0.0			0.0	1.4493984375	-0.841671875	0.0	1.0383176865378922	-1.0138642805390121	0.0	1.130598215662792	-0.9873187332317325	0.0	1.5238854715456855	-1.0049415908067223	0.0	1.1828027331459403	-0.8070253601873556	0.0	1.351414532134703	-0.583006250008107	0.0	1.251801752927314	-0.5681825572780013	0.0	0.9954766575990487	-1.0444622682830256	0.0	0.942895847387759	-0.5728999975953423	0.0	0.9267524956487074	-0.24001957491556872	0.0	0.9439245727171593	-0.4229857456862101	0.0	0.6558257272950808	-0.6805708728000893	0.0	0.4225665988084815	-1.035359728735309	0.0	0.579606503815189	-1.0218226292249182	0.0	1.2717581570789145	-0.6559243699142212	0.0	1.6549413926834189	-1.0368655320054903	0.0	1.519659183034542	-1.021546533179537	0.0
82	2.7563025210084033	0.9188795635036289	-1.028431155171798	0.0	0.6192934338766185	-0.9990619151844197	0.0	1.5116311754545713	-0.9931740551174194	0.0	0.7607584765283651	-0.9239508603386745	0.0			0.0	1.4493984375	-0.841671875	0.0	1.038315564862782	-1.0138632847814164	0.0	1.1303970909181262	-0.9873142982838798	0.0	1.5239009316973677	-1.0049404765920085	0.0	1.182802734373121	-0.807025371649382	0.0	1.351423284302002	-0.5830070073807878	0.0	1.2518017529241865	-0.5681825511202822	0.0	0.9954733530262673	-1.0444588021168841	0.0	0.9439625021024732	-0.5737246209599397	0.0	0.9273688771172941	-0.24066964758168408	0.0	0.9441737077554607	-0.4235126614165331	0.0	0.6543515306993828	-0.68181369034314	0.0	0.418329723767863	-1.0374710547358403	0.0	0.5325607644788465	-1.0220419057188832	0.0	1.2774088655921174	-0.6585134003153632	0.0	1.6559513678524478	-1.0379722943604943	0.0	1.5170029843601243	-1.0219678355996191	0.0
83	2.7899159663865545	0.9188804657307883	-1.0284285997836464	0.0	0.6192988364648493	-0.9990606950573111	0.0	1.5111590191879671	-0.9931361412291846	0.0	0.7607554203607473	-0.9239501217524135	0.0			0.0	1.4493984375	-0.841671875	0.0	1.038314125564436	-1.0138626092810754	0.0	1.130298863477202	-0.9873124775221787	0.0	1.5239084120029518	-1.0049407841632914	0.0	1.18280273488021	-0.8070253815009469	0.0	1.3514192689470534	-0.5829998303041382	0.0	1.2518017542418656	-0.568182566404695	0.0	0.9954671092567952	-1.0444574179761839	0.0	0.944387760910504	-0.5744155269908436	0.0	0.927726068565212	-0.24089053215346107	0.0	0.9442409175190394	-0.4237989477684261	0.0	0.6532270007018475	-0.6826555317369366	0.0	0.41579447511642703	-1.038582836765787	0.0	0.5049521056758672	-1.0221620753698295	0.0	1.2799730947307995	-0.660390659381488	0.0	1.6562924759130233	-1.0385176609156914	0.0	1.515536021550364	-1.0221954974121628	0.0
84	2.8235294117647056	0.9188804815898292	-1.0284267046708395	0.0	0.6192992340843045	-0.9990599857663065	0.0	1.5106797157933256	-0.9930774257234933	0.0	0.7607553312138318	-0.9239501002080515	0.0			0.0	1.4493984375	-0.841671875	0.0	1.038313356305365	-1.013862248247683	0.0	1.1302696107612773	-0.9873122889062933	0.0	1.5239119467666549	-1.004942233439003	0.0	1.1828027349532206	-0.8070253880295506	0.0	1.3514081578256623	-0.5829886443999324	0.0	1.251801755749238	-0.5681825864163972	0.0	0.9954611628081423	-1.044456891800778	0.0	0.9444275003459518	-0.5748849685426284	0.0	0.9278796457703518	-0.24087234209274433	0.0	0.9442101204081367	-0.42390201681820233	0.0	0.6525344918011937	-0.6831229016780057	0.0	0.41464212425479924	-1.0389824418278288	0.0	0.4928378969054888	-1.0221998742796412	0.0	1.280564717966016	-0.6614913596581047	0.0	1.6562609007348725	-1.0386800838317953	0.0	1.514963474936022	-1.022279781051398	0.0
85	2.857142857142857	0.9188795978685979	-1.0284256929748379	0.0	0.6192977979404348	-0.9990597405496084	0.0	1.5105221842403702	-0.9930078864631587	0.0	0.7607564909115222	-0.9239503804728545	0.0			0.0	1.4493984375	-0.841671875	0.0	1.038313071201903	-1.0138621144411748	0.0	1.1302767275392052	-0.9873127826647894	0.0	1.5239145035349577	-1.004943519989522	0.0	1.1828027348273435	-0.8070253914248756	0.0	1.3513960191050063	-0.5829794810316925	0.0	1.2518017569281954	-0.5681826029799525	0.0	0.9954621134997607	-1.0444551667460278	0.0	0.9442976943267598	-0.5751209610467691	0.0	0.9279156273623486	-0.240760152764334	0.0	0.9441258766682392	-0.42389507156648687	0.0	0.6522561816463921	-0.6832561633834809	0.0	0.4144131291715855	-1.038975116148444	0.0	0.490377506006383	-1.0221782747884447	0.0	1.2801566423136406	-0.6619239024556416	0.0	1.656051437179178	-1.0386383566936541	0.0	1.51488325491256	-1.0222766705015234	0.0
86	2.8907563025210083	0.9188770861562776	-1.0284265804611596	0.0	0.6192981338084317	-0.9990601429125222	0.0	1.5112466878335815	-0.9929578689341247	0.0	0.7607578532233604	-0.923950709703607	0.0			0.0	1.4493984375	-0.841671875	0.0	1.0383130628855788	-1.0138621105381063	0.0	1.1302969602570279	-0.9873131583130634	0.0	1.5239170980063512	-1.0049421744641647	0.0	1.1828027346533294	-0.807025392610648	0.0	1.3513907418639466	-0.5829819182394342	0.0	1.2518017576534748	-0.5681826136509106	0.0	0.995480391207764	-1.0444496273581871	0.0	0.944148360507343	-0.5751055466523345	0.0	0.9279158039982587	-0.24064441646116544	0.0	0.943994890481881	-0.42384247305338646	0.0	0.6523977764272624	-0.6830235519520926	0.0	0.4147508912608063	-1.0387865918975567	0.0	0.4924838511043987	-1.0221177933509245	0.0	1.2793906741920187	-0.6617661946705242	0.0	1.6557458824096836	-1.0385272025288117	0.0	1.5149224357714586	-1.0222280698948063	0.0
